<?xml version="1.0" encoding="utf-8"?>
<!-- Generator: Adobe Illustrator 22.1.0, SVG Export Plug-In . SVG Version: 6.00 Build 0)  -->
<svg xmlns="http://www.w3.org/2000/svg" xmlns:xlink="http://www.w3.org/1999/xlink" version="1.1" id="Layer_1" x="0px" y="0px" viewBox="0 0 512 512" style="enable-background:new 0 0 512 512;" xml:space="preserve" width="512" height="512">
<style type="text/css">
	.st0{fill:#DB9C2E;}
	.st1{fill:#BF6C0D;}
	.st2{fill:#F9BB32;}
	.st3{fill:#FCE575;}
	.st4{fill:#FFD551;}
	.st5{fill:#FFC34C;}
	.st6{fill:#FFDF74;}
	.st7{fill:#FFA730;}
	.st8{fill:#FFF4C1;}
	.st9{fill:#FFEACF;}
	.st10{fill:#FF624B;}
	.st11{fill:#CCC033;}
	.st12{fill:#8C4C17;}
	.st13{fill:#FFD59A;}
	.st14{fill:#99AF17;}
	.st15{fill:#FCF9DE;}
	.st16{fill:#E58D23;}
	.st17{fill:#A56021;}
	.st18{fill:#FF4B34;}
	.st19{fill:#FF9079;}
	.st20{fill:#EACF32;}
	.st21{fill:#FFB74B;}
	.st22{fill:#FCDA4F;}
	.st23{fill:#FFEA63;}
</style>
<g>
	<g>
		<g>
			<path class="st9" d="M390,480.745H122c-19.33,0-35-15.67-35-35V66.255c0-19.33,15.67-35,35-35h268c19.33,0,35,15.67,35,35     v379.489C425,465.075,409.33,480.745,390,480.745z"/>
		</g>
	</g>
	<g>
		<g>
			<path class="st13" d="M137,445.745V66.255c0-19.33,15.67-35,35-35h-50c-19.33,0-35,15.67-35,35v379.489c0,19.33,15.67,35,35,35     h50C152.67,480.745,137,465.075,137,445.745z"/>
		</g>
	</g>
	<g>
		<g>
			<circle class="st4" cx="154.023" cy="145.304" r="46.118"/>
		</g>
	</g>
	<g>
		<g>
			<path class="st5" d="M137,102.445c-17.041,6.775-29.094,23.404-29.094,42.859s12.053,36.084,29.094,42.859V102.445z"/>
		</g>
	</g>
	<g>
		<g>
			<circle class="st20" cx="154.319" cy="256" r="46.118"/>
		</g>
	</g>
	<g>
		<g>
			<circle class="st16" cx="154.936" cy="367.118" r="46.118"/>
		</g>
	</g>
	<g>
		<g>
			<path class="st1" d="M137,409.617v-84.999c-16.56,6.998-28.181,23.391-28.181,42.5C108.819,386.226,120.44,402.619,137,409.617z"/>
		</g>
	</g>
	<g>
		<g>
			<path class="st11" d="M137,213.258c-16.885,6.849-28.798,23.399-28.798,42.742c0,19.342,11.913,35.894,28.798,42.742V213.258z"/>
		</g>
	</g>
	<g>
		<g>
			<circle class="st14" cx="177.671" cy="247.637" r="6.551"/>
		</g>
	</g>
	<g>
		<g>
			<circle class="st14" cx="132.417" cy="247.637" r="6.551"/>
		</g>
	</g>
	<g>
		<g>
			<path class="st14" d="M171.679,274.995h-32.546c-2.209,0-4-1.791-4-4s1.791-4,4-4h32.546c2.209,0,4,1.791,4,4     S173.888,274.995,171.679,274.995z"/>
		</g>
	</g>
	<g>
		<g>
			<circle class="st1" cx="177.375" cy="136.941" r="6.551"/>
		</g>
	</g>
	<g>
		<g>
			<circle class="st17" cx="132.12" cy="136.941" r="6.551"/>
		</g>
	</g>
	<g>
		<g>
			<path class="st1" d="M156.257,169.988c-0.634,0-1.119-0.033-1.415-0.061c-13.801-0.292-19.083-9.686-19.947-14.634     c-0.38-2.176,1.076-4.248,3.252-4.628c2.156-0.375,4.221,1.057,4.621,3.209c0.172,0.841,1.927,7.899,12.38,8.058     c0.167,0.002,0.333,0.015,0.499,0.039c0.203,0.022,5.94,0.631,10.288-4.728c0.646-0.906,1.403-2.373,1.467-3.025     c0.214-2.199,2.164-3.802,4.369-3.593c2.199,0.214,3.807,2.171,3.593,4.369c-0.314,3.223-2.577,6.438-3.027,7.05     c-0.032,0.043-0.065,0.086-0.099,0.128C166.676,169.115,159.509,169.988,156.257,169.988z"/>
		</g>
	</g>
	<g>
		<g>
			<path class="st12" d="M256.479,170.301h-27.994c-6.065,0-11-4.935-11-11v-27.994c0-6.065,4.935-11,11-11h27.994     c6.065,0,11,4.935,11,11v27.994C267.479,165.367,262.545,170.301,256.479,170.301z M228.485,128.307c-1.654,0-3,1.346-3,3v27.994     c0,1.654,1.346,3,3,3h27.994c1.654,0,3-1.346,3-3v-27.994c0-1.654-1.346-3-3-3H228.485z"/>
		</g>
	</g>
	<g>
		<g>
			<path class="st17" d="M394.783,154.304H286.592c-3.537,0-6.404-4.029-6.404-9s2.867-9,6.404-9h108.191     c3.537,0,6.404,4.029,6.404,9S398.32,154.304,394.783,154.304z"/>
		</g>
	</g>
	<g>
		<g>
			<path class="st12" d="M256.479,281.301h-27.994c-6.065,0-11-4.935-11-11v-27.994c0-6.065,4.935-11,11-11h27.994     c6.065,0,11,4.935,11,11v27.994C267.479,276.367,262.545,281.301,256.479,281.301z M228.485,239.307c-1.654,0-3,1.346-3,3v27.994     c0,1.654,1.346,3,3,3h27.994c1.654,0,3-1.346,3-3v-27.994c0-1.654-1.346-3-3-3H228.485z"/>
		</g>
	</g>
	<g>
		<g>
			<path class="st17" d="M394.783,265.304H286.592c-3.537,0-6.404-4.029-6.404-9s2.867-9,6.404-9h108.191     c3.537,0,6.404,4.029,6.404,9S398.32,265.304,394.783,265.304z"/>
		</g>
	</g>
	<g>
		<g>
			<circle class="st12" cx="178.288" cy="358.755" r="6.551"/>
		</g>
	</g>
	<g>
		<g>
			<circle class="st12" cx="133.034" cy="358.755" r="6.551"/>
		</g>
	</g>
	<g>
		<g>
			<path class="st12" d="M172.292,391.808c-1.893,0-3.571-1.349-3.928-3.27c-0.172-0.841-1.927-7.899-12.38-8.058     c-0.167-0.002-0.333-0.016-0.499-0.039c-0.199-0.025-5.94-0.631-10.288,4.728c-0.646,0.906-1.403,2.374-1.467,3.026     c-0.213,2.198-2.16,3.813-4.369,3.593c-2.199-0.214-3.807-2.17-3.593-4.369c0.314-3.222,2.577-6.438,3.027-7.049     c0.032-0.043,0.065-0.086,0.099-0.129c6.645-8.296,15.584-7.926,17.394-7.756c13.801,0.292,19.083,9.686,19.947,14.634     c0.38,2.176-1.076,4.249-3.252,4.628C172.752,391.789,172.52,391.808,172.292,391.808z"/>
		</g>
	</g>
	<g>
		<g>
			<path class="st12" d="M256.479,393.301h-27.994c-6.065,0-11-4.935-11-11v-27.994c0-6.065,4.935-11,11-11h27.994     c6.065,0,11,4.935,11,11v27.994C267.479,388.367,262.545,393.301,256.479,393.301z M228.485,351.307c-1.654,0-3,1.346-3,3v27.994     c0,1.654,1.346,3,3,3h27.994c1.654,0,3-1.346,3-3v-27.994c0-1.654-1.346-3-3-3H228.485z"/>
		</g>
	</g>
	<g>
		<g>
			<path class="st17" d="M394.783,377.304H286.592c-3.537,0-6.404-4.029-6.404-9s2.867-9,6.404-9h108.191     c3.537,0,6.404,4.029,6.404,9S398.32,377.304,394.783,377.304z"/>
		</g>
	</g>
	<g>
		<g>
			<path class="st8" d="M355.533,352.45l-19.45,68.115l0.207,1.103l5.712,20.625c0.685,2.475,3.25,3.213,5.137,1.479l16.593-15.247     l19.45-68.115L355.533,352.45z"/>
		</g>
	</g>
	<g>
		<g>
			<path class="st3" d="M347.846,424.854l-0.207-1.103l19.413-67.984l-11.519-3.317l-19.45,68.115l0.207,1.103l5.712,20.625     c0.685,2.474,3.25,3.213,5.137,1.479l4.741-4.356L347.846,424.854z"/>
		</g>
	</g>
	<g>
		<g>
			<path class="st17" d="M339.587,433.574l2.415,8.719c0.685,2.475,3.25,3.213,5.137,1.479l6.649-6.11L339.587,433.574z"/>
		</g>
	</g>
	<g>
		<g>
			<path class="st3" d="M374.115,395.514l-29.418-8.47c-2.708-0.78-4.205-3.854-3.344-6.868l76.183-266.793     c3.281-11.489,14.308-18.394,24.631-15.422l1.842,0.53c10.323,2.972,16.031,14.695,12.75,26.184l-76.183,266.793     C379.716,394.483,376.823,396.294,374.115,395.514z"/>
		</g>
	</g>
	<g>
		<g>
			<path class="st4" d="M362.477,391.946c-2.708-0.779-4.205-3.854-3.344-6.868l76.183-266.793c2.354-8.242,8.699-14.1,15.906-15.67     c-2.021-1.883-4.443-3.325-7.213-4.123l-1.842-0.53c-10.323-2.972-21.35,3.933-24.631,15.422l-76.183,266.793     c-0.86,3.014,0.637,6.088,3.344,6.868l29.418,8.47c0.452,0.13,0.909,0.182,1.361,0.174L362.477,391.946z"/>
		</g>
	</g>
	<g>
		<g>
			<path class="st5" d="M374.527,245.632l-4.56-1.313c-5.873-1.691-9.121-8.361-7.254-14.897l18.42-64.508     c1.867-6.537,8.141-10.465,14.014-8.774l4.56,1.313c5.873,1.691,9.121,8.361,7.254,14.897l-18.42,64.508     C386.674,243.394,380.4,247.323,374.527,245.632z"/>
		</g>
	</g>
	<g>
		<g>
			<path class="st10" d="M398.279,303.061l-25.284-7.28c-7.341-2.114-11.401-10.451-9.068-18.622l34.754-121.707     c2.333-8.171,10.176-13.081,17.517-10.968l25.284,7.28c7.341,2.114,11.401,10.451,9.068,18.622l-34.754,121.707     C413.462,300.265,405.62,305.175,398.279,303.061z"/>
		</g>
	</g>
	<g>
		<g>
			<path class="st18" d="M392.445,301.144c-7.341-2.114-11.401-10.451-9.068-18.622l34.754-121.707     c2.093-7.33,8.62-12.018,15.241-11.383l-17.282-4.976c-7.341-2.114-15.184,2.797-17.517,10.968L363.82,277.131     c-2.333,8.171,1.727,16.508,9.068,18.622l25.284,7.279c0.756,0.218,1.516,0.343,2.276,0.416L392.445,301.144z"/>
		</g>
	</g>
	<g>
		<g>
			<path class="st4" d="M447.306,157.087l-37.401-10.31c-2.928-0.807-4.648-3.835-3.841-6.764l0.757-2.745     c0.807-2.928,3.835-4.648,6.764-3.841l37.401,10.31c2.928,0.807,4.648,3.835,3.841,6.764l-0.757,2.745     C453.263,156.175,450.234,157.895,447.306,157.087z"/>
		</g>
	</g>
	<g>
		<g>
			<path class="st5" d="M424.771,145.023l0.681-2.472c0.828-3.004,3.688-4.835,6.389-4.091l-18.669-5.146     c-2.7-0.744-5.561,1.087-6.389,4.091l-0.681,2.472c-0.828,3.004,0.69,6.042,3.39,6.787l18.669,5.146     C425.461,151.066,423.943,148.027,424.771,145.023z"/>
		</g>
	</g>
	<g>
		<g>
			<path class="st19" d="M429.686,205.047c-0.528,0-1.064-0.07-1.598-0.217c-3.194-0.881-5.07-4.184-4.189-7.379l3.135-11.372     c0.88-3.194,4.184-5.071,7.379-4.19c3.194,0.881,5.07,4.184,4.189,7.379l-3.135,11.372     C434.733,203.301,432.318,205.047,429.686,205.047z"/>
		</g>
	</g>
	<g>
		<g>
			<path class="st19" d="M407.178,286.698c-0.528,0-1.064-0.07-1.598-0.217c-3.194-0.881-5.07-4.184-4.189-7.379l18.146-65.83     c0.88-3.194,4.184-5.071,7.379-4.19c3.194,0.881,5.07,4.184,4.189,7.379l-18.146,65.83     C412.226,284.952,409.811,286.698,407.178,286.698z"/>
		</g>
	</g>
	<g>
		<g>
			<circle class="st13" cx="165.346" cy="444.719" r="15.815"/>
		</g>
	</g>
	<g>
		<g>
			<circle class="st13" cx="263.48" cy="61.769" r="15.815"/>
		</g>
	</g>
	<g>
		<g>
			<path class="st15" d="M377.006,472c-0.016,0-0.029,0-0.039,0c-3.314-0.018-5.985-2.719-5.967-6.033     c0.018-3.302,2.701-5.967,6-5.967c0.003,0,0.006,0,0.009,0c0.262-0.002,12.437-0.198,20.49-8.691     c5.529-5.831,8.056-14.438,7.509-25.583c-0.163-3.31,2.389-6.125,5.699-6.287c3.305-0.165,6.124,2.389,6.287,5.699     c0.717,14.62-2.952,26.245-10.905,34.552C394.511,471.783,378.134,472,377.006,472z"/>
		</g>
	</g>
</g>
</svg>
